<svg width="19" height="16" viewBox="0 0 19 16" fill="none" xmlns="http://www.w3.org/2000/svg">
<path d="M9.14682 2.06538C5.1947 2.08132 1.77092 4.38529 0.122802 7.69749C0.0267743 7.90549 0.0267743 8.16142 0.122802 8.3374C1.77092 11.6496 5.1947 13.9536 9.14682 13.9695C13.099 13.9536 16.5227 11.6496 18.1708 8.3374C18.2669 8.16142 18.2669 7.90549 18.1708 7.69749C16.5227 4.38529 13.099 2.08132 9.14682 2.06538ZM9.14682 11.8574C7.01884 11.8574 5.30682 10.1454 5.30682 8.01738C5.30682 5.88924 7.01884 4.17722 9.14682 4.17722C11.2748 4.17722 12.9868 5.88924 12.9868 8.01738C12.9868 10.1454 11.2748 11.8574 9.14682 11.8574ZM9.14682 5.56925C7.78677 5.56925 6.69888 6.65727 6.69888 8.01718C6.69888 9.37723 7.78677 10.4652 9.14682 10.4652C10.5069 10.4652 11.5948 9.37723 11.5948 8.01718C11.5948 6.65727 10.5069 5.56925 9.14682 5.56925Z" fill="#666666" fill-opacity="0.8"/>
</svg>
