<svg width="286" height="302" viewBox="0 0 286 302" fill="none" xmlns="http://www.w3.org/2000/svg">
<path d="M163.514 294.529C163.265 294.529 163.016 294.463 162.793 294.333L41.9319 223.236C41.5891 223.036 41.3479 222.701 41.2641 222.312C41.1803 221.924 41.2616 221.52 41.4901 221.195L138.834 82.8619C139.286 82.2195 140.172 82.0646 140.815 82.5166C141.457 82.9686 141.612 83.8547 141.16 84.4971L44.7064 221.569L162.22 290.697L166.036 220.074C166.079 219.29 166.739 218.695 167.532 218.731C168.316 218.774 168.915 219.444 168.875 220.226L164.932 293.182C164.904 293.678 164.622 294.124 164.183 294.358C163.974 294.472 163.743 294.528 163.512 294.528L163.514 294.529ZM168.61 200.279C168.584 200.279 168.559 200.279 168.531 200.276C167.747 200.233 167.147 199.563 167.188 198.781L176.044 34.9353L153.434 67.0648C152.982 67.7072 152.096 67.8621 151.454 67.4101C150.811 66.9582 150.656 66.072 151.108 65.4296L176.57 29.2506C176.936 28.7327 177.598 28.5169 178.198 28.7251C178.797 28.9333 179.185 29.5122 179.152 30.1444L170.027 198.936C169.986 199.693 169.359 200.28 168.61 200.28L168.61 200.279Z" fill="#333333"/>
<path d="M277.264 223.432H197.555C196.77 223.432 196.133 222.795 196.133 222.01C196.133 221.225 196.77 220.588 197.555 220.588H275.022L219.66 102.945L61.2547 163.029C60.5184 163.309 59.6983 162.938 59.4215 162.204C59.1422 161.47 59.5129 160.648 60.2467 160.371L219.887 99.8196C220.58 99.5581 221.359 99.8704 221.677 100.543L278.552 221.404C278.76 221.844 278.727 222.362 278.465 222.773C278.206 223.184 277.754 223.433 277.267 223.433L277.264 223.432ZM176.228 223.432H42.653C42.1782 223.432 41.7339 223.193 41.4698 222.8L13.0323 180.143C12.7911 179.783 12.7302 179.333 12.8622 178.92C12.9942 178.508 13.3065 178.178 13.7128 178.023L40.3069 167.935C41.0432 167.656 41.8633 168.027 42.1401 168.761C42.4194 169.494 42.0487 170.317 41.3149 170.594L16.3887 180.047L43.4144 220.588H176.229C177.013 220.588 177.651 221.225 177.651 222.01C177.648 222.794 177.011 223.432 176.226 223.432L176.228 223.432Z" fill="#333333"/>
<path d="M14.2152 180.779C13.8801 180.779 13.5475 180.66 13.2834 180.431C12.8873 180.091 12.7121 179.558 12.8264 179.047L41.2639 51.0752C41.3477 50.6943 41.5863 50.3642 41.9215 50.1637C42.2566 49.9632 42.6603 49.9098 43.0336 50.0139L107.501 68.0644C108.257 68.2752 108.699 69.0597 108.486 69.8163C108.275 70.573 107.488 71.0148 106.734 70.8015L43.7117 53.1553L16.1706 177.084L90.5565 148.87C91.2903 148.591 92.113 148.962 92.3898 149.696C92.6691 150.429 92.2983 151.252 91.5646 151.529L14.7216 180.683C14.5565 180.743 14.3864 180.774 14.2163 180.774L14.2152 180.779ZM111.007 144.067C110.433 144.067 109.892 143.716 109.676 143.15C109.397 142.416 109.768 141.594 110.501 141.317L215.84 101.36L127.278 76.5608C126.521 76.35 126.079 75.5655 126.293 74.8088C126.504 74.0522 127.288 73.6104 128.045 73.8237L220.774 99.7879C221.365 99.953 221.784 100.479 221.812 101.093C221.84 101.707 221.469 102.269 220.896 102.487L111.514 143.978C111.343 144.036 111.171 144.067 111.006 144.067L111.007 144.067Z" fill="#333333"/>
<path d="M270.153 301.64C261.528 301.64 254.513 294.625 254.513 286C254.513 277.375 261.528 270.359 270.153 270.359C278.778 270.359 285.793 277.375 285.793 286C285.793 294.625 278.778 301.64 270.153 301.64ZM270.153 273.202C263.097 273.202 257.356 278.943 257.356 286C257.356 293.056 263.097 298.797 270.153 298.797C277.209 298.797 282.95 293.056 282.95 286C282.95 278.943 277.209 273.202 270.153 273.202Z" fill="#333333"/>
<path d="M99.528 31.4806C90.9025 31.4806 83.8877 24.4651 83.8877 15.8403C83.8877 7.2154 90.9032 0.199951 99.528 0.199951C108.153 0.199951 115.168 7.2154 115.168 15.8403C115.168 24.4651 108.153 31.4806 99.528 31.4806ZM99.528 3.04305C92.4723 3.04305 86.7308 8.78385 86.7308 15.8403C86.7308 22.8967 92.4716 28.6374 99.528 28.6374C106.584 28.6374 112.325 22.8967 112.325 15.8403C112.325 8.78385 106.584 3.04305 99.528 3.04305Z" fill="#333333"/>
<path d="M234.604 202.106C234.229 202.106 233.866 201.948 233.594 201.687C233.33 201.423 233.183 201.055 233.183 200.684C233.183 200.305 233.332 199.937 233.594 199.673C234.127 199.148 235.079 199.148 235.605 199.673C235.874 199.942 236.024 200.305 236.024 200.684C236.024 201.054 235.874 201.423 235.605 201.687C235.343 201.948 234.98 202.106 234.604 202.106Z" fill="#333333"/>
<path d="M213.278 202.106C212.902 202.106 212.539 201.948 212.275 201.687C212.006 201.423 211.856 201.055 211.856 200.684C211.856 200.305 212.006 199.937 212.275 199.673C212.793 199.148 213.753 199.148 214.281 199.673C214.55 199.942 214.7 200.305 214.7 200.684C214.7 201.054 214.55 201.423 214.288 201.687C214.017 201.948 213.654 202.106 213.278 202.106H213.278Z" fill="#333333"/>
<path d="M191.951 202.106C191.575 202.106 191.212 201.948 190.941 201.687C190.677 201.423 190.529 201.055 190.529 200.684C190.529 200.305 190.679 199.945 190.941 199.673C191.474 199.148 192.426 199.148 192.952 199.673C193.221 199.942 193.371 200.305 193.371 200.684C193.371 201.054 193.221 201.423 192.959 201.687C192.69 201.948 192.327 202.106 191.951 202.106H191.951Z" fill="#333333"/>
<path d="M191.951 180.779C191.58 180.779 191.212 180.621 190.941 180.36C190.677 180.096 190.529 179.728 190.529 179.357C190.529 178.979 190.679 178.618 190.941 178.346C191.474 177.821 192.426 177.821 192.952 178.346C193.221 178.615 193.371 178.979 193.371 179.357C193.371 179.728 193.221 180.096 192.952 180.36C192.69 180.621 192.322 180.779 191.951 180.779Z" fill="#333333"/>
<path d="M191.951 159.452C191.575 159.452 191.212 159.295 190.948 159.033C190.679 158.769 190.529 158.401 190.529 158.03C190.529 157.652 190.679 157.292 190.941 157.02C191.474 156.494 192.426 156.494 192.952 157.02C193.221 157.289 193.371 157.652 193.371 158.03C193.371 158.401 193.221 158.769 192.959 159.033C192.69 159.295 192.327 159.452 191.951 159.452Z" fill="#333333"/>
<path d="M0 278.89H14.2188V293.109H0V278.89Z" fill="#333333"/>
<path d="M21.3267 278.89H35.5454V293.109H21.3267V278.89Z" fill="#333333"/>
<path d="M42.6533 278.89H56.8721V293.109H42.6533V278.89Z" fill="#333333"/>
<path d="M63.9795 278.89H78.1982V293.109H63.9795V278.89Z" fill="#333333"/>
</svg>
